<?xml version="1.0" encoding="UTF-8"?>
<svg xmlns="http://www.w3.org/2000/svg" viewBox="0 0 1600 900" role="img" aria-label="Two cats, one paw each, with a note that meanings vary">
  <rect width="1600" height="900" fill="#FAF8F3"/>
  <rect x="0" y="0" width="1600" height="16" fill="#BC002D"/>
  <rect x="0" y="884" width="1600" height="16" fill="#BC002D"/>
  
        <ellipse cx="480" cy="500" rx="180" ry="220" fill="#FAF8F3" stroke="#1A1610" stroke-width="6"/>
        <circle cx="480" cy="300" r="110" fill="#FAF8F3" stroke="#1A1610" stroke-width="6"/>
        <path d="M400 220 L360 120 L440 210" fill="#FAF8F3" stroke="#1A1610" stroke-width="6"/>
        <path d="M560 220 L600 120 L520 210" fill="#FAF8F3" stroke="#1A1610" stroke-width="6"/>
        <path d="M620 360 Q720 240 640 200" fill="none" stroke="#BC002D" stroke-width="14"/>
        <ellipse cx="1120" cy="500" rx="180" ry="220" fill="#FAF8F3" stroke="#1A1610" stroke-width="6"/>
        <circle cx="1120" cy="300" r="110" fill="#FAF8F3" stroke="#1A1610" stroke-width="6"/>
        <path d="M1040 220 L1000 120 L1080 210" fill="#FAF8F3" stroke="#1A1610" stroke-width="6"/>
        <path d="M1200 220 L1240 120 L1160 210" fill="#FAF8F3" stroke="#1A1610" stroke-width="6"/>
        <path d="M980 360 Q880 240 960 200" fill="none" stroke="#BC002D" stroke-width="14"/>
        <text x="360" y="800" font-size="26" font-family="Georgia, serif">left or right? meanings vary</text>
        
  
</svg>
