<?xml version="1.0" encoding="UTF-8"?>
<svg xmlns="http://www.w3.org/2000/svg" viewBox="0 0 1600 900" role="img" aria-label="Original drawings of kitsune, tanuki, kappa, tengu and oni, not Pokémon">
  <rect width="1600" height="900" fill="#FAF8F3"/>
  <rect x="0" y="0" width="1600" height="16" fill="#BC002D"/>
  <rect x="0" y="884" width="1600" height="16" fill="#BC002D"/>
  
        <g font-family="Georgia, serif" font-size="24" text-anchor="middle" fill="#1A1610">
          <circle cx="180" cy="380" r="90" fill="#E8D3B0"/>
          <polygon points="120,320 150,220 180,320" fill="#E8D3B0"/>
          <polygon points="180,320 210,220 240,320" fill="#E8D3B0"/>
          <text x="180" y="530">kitsune</text>
          <ellipse cx="500" cy="400" rx="110" ry="90" fill="#C4A574"/>
          <circle cx="500" cy="360" r="16" fill="#1A1610"/>
          <text x="500" y="530">tanuki</text>
          <ellipse cx="820" cy="410" rx="90" ry="70" fill="#7BAF8A"/>
          <rect x="790" y="330" width="60" height="24" rx="8" fill="#4E7A58"/>
          <text x="820" y="530">kappa</text>
          <circle cx="1140" cy="370" r="80" fill="#E8D3B0"/>
          <rect x="1128" y="300" width="24" height="70" fill="#E8D3B0"/>
          <text x="1140" y="530">tengu</text>
          <circle cx="1440" cy="380" r="90" fill="#8C3A3A"/>
          <polygon points="1380,300 1440,240 1500,300" fill="#8C3A3A"/>
          <text x="1440" y="530">oni</text>
        </g>
        
  <text x="48" y="860" font-family="Georgia, serif" font-size="26" fill="#1A1610">Original marks. Not any game characters.</text>
</svg>
